# xmcd
#
# Track frame offsets: 
#        182
#        21622
#        40297
#        59300
#        81795
#        104965
#        121840
#        144540
#        166617
#        188017
#
# Disc length: 2799 seconds
#
# Revision: 6
# Processed by: cddbd v1.5.2PL0 Copyright (c) Steve Scherf et al.
# Submitted via: ExactAudioCopy v0.99pb5
#
DISCID=870aed0a
DTITLE=Luu Bich and To Chan Phong - Moi Tinh Dau
DYEAR=1994
DGENRE=Vocal
TTITLE0=Dem Nay Em Thay Co Don (lv Khuc Lan)
TTITLE1=Nhung Buoi Chieu Vang (lv Khuc Lan)
TTITLE2=Mai Yeu (lv Khuc Lan)
TTITLE3=Chuyen Tinh Khong Suy Tu (Tam Anh)
TTITLE4=Tinh Nong (lv Khuc Lan)
TTITLE5=Vong Tay Nguoi Ay (lv Khuc Lan)
TTITLE6=Roi Mai Toi Dua Em (Nguyen Sa)
TTITLE7=Neu Vang Anh (lv Khuc Lan)
TTITLE8=Phu Du (Phan Kien)
TTITLE9=Yeu Em Lam Lo (Pham Duy)
EXTD=YEAR: 1994
EXTT0=
EXTT1=
EXTT2=
EXTT3=
EXTT4=
EXTT5=
EXTT6=
EXTT7=
EXTT8=
EXTT9=
PLAYORDER=
